<?xml version="1.0" encoding="UTF-8"?><svg id="a" xmlns="http://www.w3.org/2000/svg" viewBox="0 0 50 50"><defs><style>.c{fill:#f26c4f;}</style></defs><path id="b" class="c" d="m.5,24.62c.31-1.03,1.32-1.69,2.39-1.55,13.12.02,26.25.02,39.38.01h.66c-.21-.22-.34-.37-.48-.51-2.06-2.05-4.11-4.1-6.17-6.16-.53-.49-.74-1.24-.52-1.93.18-.69.74-1.21,1.43-1.33.67-.15,1.37.08,1.82.59,1.86,1.86,3.73,3.72,5.6,5.58,1.39,1.39,2.78,2.77,4.17,4.16.83.67.97,1.9.29,2.73-.09.11-.19.21-.29.29-3.24,3.24-6.49,6.47-9.73,9.7-.68.8-1.89.91-2.69.22-.04-.03-.08-.07-.12-.11-.75-.76-.75-1.98,0-2.73.04-.04.08-.08.13-.12,2.03-2.03,4.07-4.06,6.1-6.09.12-.12.27-.23.4-.34l-.04-.13h-.52c-13.14,0-26.28,0-39.42.01-1.07.14-2.08-.51-2.39-1.55v-.77Z"/></svg>