<?xml version="1.0" encoding="UTF-8"?><svg fill="#fff" id="a" xmlns="http://www.w3.org/2000/svg" viewBox="0 0 50 50"><g id="b"><path id="c" d="m23.47.5h3.06c.12.03.24.06.37.08,3.77.25,7.42,1.41,10.64,3.38,6.15,3.62,10.39,9.78,11.58,16.82.17.89.25,1.79.38,2.69v3.06c-.04.31-.08.63-.12.94-1.13,10.89-9.34,19.72-20.12,21.65-.9.16-1.82.25-2.74.38h-3.06c-.6-.07-1.2-.14-1.79-.22-4.45-.59-8.64-2.41-12.11-5.27-4.6-3.69-7.69-8.93-8.68-14.74-.16-.91-.26-1.82-.38-2.74v-3.06c.04-.31.08-.63.12-.94.5-5.08,2.6-9.88,5.99-13.69C10.27,4.6,15.3,1.79,20.83.87c.88-.15,1.76-.25,2.65-.37m1.61,35.32c3.46-.16,6.92-.29,10.37-.5,2.8-.17,4.08-1.38,4.46-4.11.38-2.69.49-5.4.35-8.11-.08-1.75-.27-3.49-.55-5.22-.24-1.59-1.52-2.83-3.12-3.02-.75-.15-1.52-.24-2.28-.28-3.51-.12-7.01-.3-10.52-.27-3.33.03-6.66.24-9.98.47-1.83.04-3.35,1.42-3.55,3.24-.3,1.95-.48,3.92-.54,5.9-.15,2.74.04,5.49.55,8.19.27,1.55,1.48,2.75,3.03,3.02.48.11.97.18,1.47.21,3.44.17,6.88.33,10.32.49"/><path id="d" d="m30.08,25l-8.29,4.77v-9.55l8.29,4.77"/></g></svg>