<?xml version="1.0" encoding="UTF-8"?><svg fill="#fff" id="a" xmlns="http://www.w3.org/2000/svg" viewBox="0 0 50 50"><g id="b"><path id="c" d="m24.99.5c13.53,0,24.5,10.96,24.51,24.49,0,13.53-10.96,24.5-24.49,24.51-13.53,0-24.5-10.96-24.51-24.49,0,0,0-.01,0-.02C.51,11.47,11.47.51,24.99.5m.13,10.24c-4.04-.09-7.99,1.27-11.12,3.82-2.45,1.9-3.94,4.8-4.04,7.91-.07,3.01,1.2,5.89,3.46,7.88,2.57,2.38,5.84,3.86,9.33,4.21.81.1,1.07.41.97,1.21-.09.75-.22,1.51-.24,2.26-.02.36.09.72.29,1.02.27.34.69.2,1.04,0,1.56-.86,3.16-1.65,4.68-2.58,3.67-2.1,6.79-5.05,9.09-8.61.9-1.42,1.4-3.05,1.45-4.73.1-2.99-1.11-5.87-3.32-7.89-3.13-2.95-7.29-4.56-11.59-4.49"/><path id="d" d="m24.72,22.04v3c0,.63-.26.95-.74.95s-.73-.32-.73-.95v-5.17c0-.39.07-.75.48-.9.38-.13.79.04.98.39.9,1.19,1.82,2.38,2.85,3.54v-2.88c0-.78.23-1.11.75-1.1s.72.33.72,1.13v3.85c0,.37,0,.73,0,1.1.01.41-.07.78-.5.94s-.71-.1-.97-.43c-.9-1.18-1.81-2.34-2.72-3.52l-.12.03"/><path id="e" d="m31.91,23.21v1.32c.68,0,1.33,0,1.99,0,.62,0,.96.27.95.74s-.35.73-.96.73c-.86,0-1.72,0-2.58,0-.65,0-.91-.25-.91-.9-.01-1.76-.01-3.52,0-5.28,0-.66.25-.89.91-.9.88-.01,1.76,0,2.64,0,.58,0,.91.28.91.73,0,.47-.34.74-.95.74h-1.97v1.32h1.95c.6,0,.96.28.97.74s-.34.75-.95.75c-.64,0-1.28,0-1.98,0"/><path id="f" d="m16.63,24.53c.76,0,1.41,0,2.07,0,.57,0,.9.29.89.74s-.34.72-.9.73c-.88,0-1.76,0-2.63,0-.64,0-.91-.26-.91-.89,0-1.77,0-3.55,0-5.32,0-.54.27-.84.72-.86.47-.01.76.29.76.87.01,1.35,0,2.71,0,4.06v.67"/><path id="g" d="m20.46,22.42c0-.92,0-1.83,0-2.74,0-.5.2-.75.72-.75.56,0,.76.17.77.75,0,1.87,0,3.74,0,5.61,0,.5-.23.74-.74.73s-.73-.2-.74-.73c0-.95,0-1.91,0-2.86"/></g></svg>