<?xml version="1.0" encoding="UTF-8"?><svg fill="#fff" id="a" xmlns="http://www.w3.org/2000/svg" viewBox="0 0 50 50"><g id="b"><path id="c" d="m49.5,36.01c-.18.86-.64,1.64-1.31,2.21-1.23.98-2.97.98-4.21.02-.24-.19-.46-.39-.67-.61-5.96-5.96-11.91-11.91-17.87-17.87-.17-.2-.36-.38-.58-.54-.07.18-.17.35-.29.5-6.01,6.02-12.02,12.03-18.03,18.04-.93,1.07-2.41,1.46-3.75,1.01-1.79-.62-2.73-2.57-2.11-4.35.11-.31.26-.6.45-.87.15-.2.32-.4.5-.58,6.93-6.93,13.85-13.85,20.78-20.78,1.09-1.24,2.9-1.52,4.31-.66.35.22.67.48.96.78,6.73,6.72,13.46,13.44,20.19,20.16.79.67,1.36,1.57,1.63,2.58v.96Z"/></g></svg>