<?xml version="1.0" encoding="UTF-8"?><svg fill="#fff" id="a" xmlns="http://www.w3.org/2000/svg" viewBox="0 0 50 50"><g id="b"><path id="c" d="m.5,39.23V15.32c.07.03.14.06.21.1,6.63,4.7,13.26,9.41,19.88,14.11,2.56,2.05,6.19,2.06,8.76.03,6.55-4.64,13.1-9.28,19.65-13.93.14-.1.28-.2.49-.33v.41c0,7.6,0,15.2,0,22.8,0,.42-.05.84-.14,1.26-.45,2.17-2.39,3.7-4.61,3.63-6.52,0-13.04,0-19.56,0H5.28c-1.27.04-2.5-.46-3.39-1.37-.72-.78-1.2-1.75-1.38-2.79Z"/><path id="d" d="m.5,10.66c.08-.28.15-.57.24-.85.59-1.9,2.35-3.2,4.34-3.2.94-.01,1.88,0,2.82,0h36.78c1.39-.06,2.72.51,3.63,1.56,1.7,1.89,1.55,4.81-.34,6.51-.13.12-.27.23-.42.33-2.98,2.1-5.99,4.15-8.98,6.23-3.57,2.47-7.13,4.93-10.7,7.4-1.66,1.42-4.1,1.42-5.76,0-6.28-4.35-12.56-8.71-18.86-13.02-1.39-.78-2.39-2.11-2.76-3.67v-1.29Z"/></g></svg>