<?xml version="1.0" encoding="UTF-8"?><svg fill="#fff" id="a" xmlns="http://www.w3.org/2000/svg" viewBox="0 0 50 50"><g id="b"><path id="c" d="m.5,12.79c.15-.42.32-.84.51-1.24,1.4-2.48,3.09-4.78,5.05-6.84,1.16-1.22,2.38-2.38,3.67-3.46,1.16-1.07,2.97-.99,4.03.17.14.15.26.31.36.49,2.34,3.1,4.36,6.42,6.04,9.92.23.53.43,1.07.59,1.63.32.89.11,1.89-.55,2.57-.78.82-1.64,1.58-2.49,2.33-1.14,1-1.16.99-.58,2.36,2.36,5.78,7.03,10.32,12.88,12.5.41.25.95.12,1.2-.29,0,0,0,0,0,0,.73-.92,1.52-1.79,2.31-2.65.86-1.09,2.37-1.43,3.61-.81,1.75.78,3.46,1.65,5.12,2.61,1.96,1.16,3.82,2.48,5.7,3.76.75.52,1.27,1.31,1.47,2.2.15.5.08,1.03-.18,1.48-.31.56-.67,1.1-1.08,1.6-2.71,3.04-5.85,5.66-9.32,7.8-1.12.63-2.45.77-3.67.38-4.35-.93-8.48-2.69-12.16-5.18-7.69-4.93-14.05-11.66-18.55-19.61-1.74-2.99-2.97-6.25-3.66-9.64-.12-.63-.2-1.28-.32-2.07Z"/></g></svg>