<?xml version="1.0" encoding="UTF-8"?><svg fill="#fff" id="a" xmlns="http://www.w3.org/2000/svg" viewBox="0 0 50 50"><g id="b"><path id="c" d="m.5,24.97C.51,11.44,11.5.49,25.03.5c13.53.01,24.49,11,24.47,24.53-.01,13.53-11,24.49-24.53,24.47,0,0,0,0-.01,0-13.52-.03-24.47-11-24.46-24.53m9.41,0h-.04c0,1.86-.01,3.72,0,5.59,0,.7.05,1.4.14,2.1.27,2.81,2.03,5.27,4.61,6.42,1.38.61,2.87.91,4.38.9,3.82.02,7.64.02,11.47,0,.83,0,1.66-.06,2.49-.19,2.97-.31,5.5-2.29,6.52-5.1.45-1.23.68-2.53.67-3.84,0-3.79,0-7.58,0-11.37,0-.72-.04-1.43-.15-2.15-.28-2.99-2.24-5.56-5.05-6.61-1.22-.47-2.52-.71-3.83-.71-4.07-.02-8.13-.02-12.2,0-1.66-.02-3.29.37-4.76,1.13-2.59,1.38-4.2,4.08-4.2,7.01-.14,2.26-.03,4.54-.03,6.81"/><path id="d" d="m25,12.81c2,0,4-.02,6,.01.65,0,1.3.09,1.93.23,2.34.48,4.08,2.44,4.26,4.82.06.55.1,1.11.1,1.67,0,3.74.03,7.48-.02,11.21,0,.93-.15,1.86-.44,2.74-.61,2.1-2.53,3.56-4.72,3.58-2.84.16-5.69.15-8.54.15-1.89,0-3.78,0-5.66-.14-2.76-.12-4.98-2.3-5.14-5.06-.06-.5-.09-1.01-.09-1.52,0-3.79-.03-7.57.02-11.36.01-.9.16-1.79.44-2.65.63-2.09,2.54-3.54,4.72-3.58,1.98-.15,3.97-.12,5.95-.16.39,0,.78,0,1.18,0v.05m-.01,4.2c-4.41-.03-8.01,3.53-8.04,7.95-.03,4.41,3.53,8.01,7.95,8.04,4.41.03,8.01-3.53,8.04-7.95,0,0,0,0,0,0,.05-4.38-3.46-7.98-7.85-8.03-.03,0-.07,0-.1,0m7.99,1.63c.88,0,1.59-.71,1.6-1.59s-.71-1.59-1.59-1.6c-.88,0-1.59.71-1.6,1.59,0,0,0,.01,0,.02,0,.87.71,1.58,1.59,1.58"/><path id="e" d="m30.16,25.02c-.01,2.85-2.33,5.15-5.18,5.14-2.85-.01-5.15-2.33-5.14-5.18.01-2.85,2.33-5.15,5.18-5.14h0c2.84,0,5.14,2.32,5.13,5.16,0,0,0,.01,0,.02"/></g></svg>