<?xml version="1.0" encoding="UTF-8"?><svg fill="#fff" id="a" xmlns="http://www.w3.org/2000/svg" viewBox="0 0 50 50"><g id="b"><path id="c" d="m23.47.5h3.06c.82.11,1.64.18,2.46.32,5.71.91,10.9,3.85,14.62,8.29,8.79,10.26,7.61,25.71-2.66,34.5-9.27,7.95-22.99,7.84-32.13-.25-4.19-3.64-6.99-8.62-7.94-14.09-.16-.91-.26-1.82-.38-2.74v-3.06c.07-.6.14-1.2.22-1.79C2.2,11.13,10.3,2.74,20.78.88c.89-.16,1.79-.25,2.69-.38m8.04,16.02v-4.82s-.1-.04-.15-.05c-1.76.01-3.54-.06-5.3.07-1.77.09-3.34,1.13-4.12,2.72-.54,1.11-.79,2.33-.74,3.57,0,.92,0,1.85,0,2.82h-2.77v5.04h2.78v14.16h5.91v-14.2h3.98c.17-1.68.34-3.32.51-5.01h-4.5v-2.67c0-1.28.36-1.64,1.66-1.64h2.74"/></g></svg>