<?xml version="1.0" encoding="UTF-8"?><svg fill="#fff" id="a" xmlns="http://www.w3.org/2000/svg" viewBox="0 0 50 50"><g id="b"><path id="c" d="m36.01.5c.86.18,1.64.64,2.21,1.31.98,1.23.98,2.97.02,4.21-.19.24-.39.46-.61.67-5.96,5.96-11.91,11.91-17.87,17.87-.2.17-.38.36-.54.58.18.07.35.17.5.29,6.02,6.01,12.03,12.02,18.04,18.03,1.07.93,1.46,2.41,1.01,3.75-.62,1.79-2.57,2.73-4.35,2.11-.31-.11-.6-.26-.87-.45-.2-.15-.4-.32-.58-.5-6.93-6.93-13.85-13.85-20.78-20.78-1.24-1.09-1.52-2.9-.66-4.31.22-.35.48-.67.78-.96,6.72-6.73,13.44-13.46,20.16-20.19.67-.79,1.57-1.36,2.58-1.63h.96Z"/></g></svg>