<?xml version="1.0" encoding="UTF-8"?><svg fill="#fff" id="a" xmlns="http://www.w3.org/2000/svg" viewBox="0 0 50 50"><g id="b"><path id="c" d="m6.7,18.28C6.81,8.35,15.12.39,25.25.5c8.67.1,16.09,6.13,17.78,14.47.62,3.37.18,6.84-1.27,9.95-2.01,4.61-4.5,9-7.43,13.11-2.53,3.61-5.2,7.13-7.83,10.67-.46.77-1.46,1.03-2.25.59-.22-.13-.41-.3-.55-.51-4.83-5.92-9.14-12.22-12.89-18.84-1.6-2.73-2.82-5.65-3.63-8.69-.24-.97-.33-1.98-.48-2.96Zm18.38-7.99c-3.68,0-6.67,2.91-6.68,6.52,0,3.61,2.97,6.54,6.65,6.54s6.67-2.91,6.68-6.52v-.03c0-3.6-2.98-6.51-6.65-6.52h0Z"/></g></svg>